# Blender v3.4.0 OBJ File: 'Obelisk1_0001.blend'
# www.blender.org
mtllib Obelisk1_0001.mtl
o Obelisk_low
v -0.960600 -0.000000 0.984300
v 0.960600 -0.000000 0.984300
v 0.960600 0.452500 0.984300
v -0.960600 0.452500 0.984300
v 0.984300 -0.000000 0.960600
v 0.984300 0.000000 -0.960600
v 0.984300 0.452500 -0.960600
v 0.984300 0.452500 0.960600
v 0.960600 0.000000 -0.984300
v -0.960600 0.000000 -0.984300
v -0.960600 0.452500 -0.984300
v 0.960600 0.452500 -0.984300
v -0.984300 0.000000 -0.960600
v -0.984300 -0.000000 0.960600
v -0.984300 0.452500 0.960600
v -0.984300 0.452500 -0.960600
v -0.960600 0.476100 0.960600
v 0.960600 0.476100 0.960600
v -0.960600 0.476100 -0.960600
v 0.960600 0.476100 -0.960600
v -0.051000 15.686200 0.051003
v 0.051000 15.686200 0.051003
v 0.051000 15.686200 -0.050997
v -0.051000 15.686200 -0.050997
v 0.960600 0.975400 0.960600
v -0.960600 0.975400 0.960600
v 0.960600 0.975400 -0.960600
v -0.960600 0.975400 -0.960600
v 0.891600 1.065200 0.891600
v -0.891600 1.065200 0.891600
v 0.891600 1.065200 -0.891600
v -0.891600 1.065200 -0.891600
v -0.677200 1.271300 0.768400
v 0.677200 1.271300 0.768400
v 0.623500 3.442600 0.714701
v -0.623500 3.442600 0.714701
v 0.768400 1.271300 0.677200
v 0.768400 1.271300 -0.677200
v 0.714700 3.442600 -0.623499
v 0.714700 3.442600 0.623501
v 0.677200 1.271300 -0.768400
v -0.677200 1.271300 -0.768400
v -0.623500 3.442600 -0.714699
v 0.623500 3.442600 -0.714699
v -0.768400 1.271300 -0.677200
v -0.768400 1.271300 0.677200
v -0.714700 3.442600 0.623501
v -0.714700 3.442600 -0.623499
v 1.050900 3.866500 1.050901
v 1.050900 4.098100 1.050901
v -1.050900 4.098100 1.050901
v -1.050900 3.866500 1.050901
v 1.050900 3.866500 -1.050899
v 1.050900 4.098100 -1.050899
v -1.050900 3.866500 -1.050899
v -1.050900 4.098100 -1.050899
v 0.899600 4.127100 0.899601
v 0.827600 4.310000 0.827601
v -0.827600 4.310000 0.827601
v -0.899600 4.127100 0.899601
v -0.899600 3.837500 0.899601
v -0.827600 3.654600 0.827601
v 0.827600 3.654600 0.827601
v 0.899600 3.837500 0.899601
v 0.899600 4.127100 -0.899599
v 0.827600 4.310000 -0.827599
v 0.827600 3.654600 -0.827599
v 0.899600 3.837500 -0.899599
v -0.899600 4.127100 -0.899599
v -0.827600 4.310000 -0.827599
v -0.827600 3.654600 -0.827599
v -0.899600 3.837500 -0.899599
v -1.042600 4.110900 1.042601
v 1.042600 4.110900 1.042601
v -1.042600 4.110900 -1.042599
v 1.042600 4.110900 -1.042599
v 1.042600 3.853700 1.042601
v -1.042600 3.853700 1.042601
v 1.042600 3.853700 -1.042599
v -1.042600 3.853700 -1.042599
v 0.707400 4.310000 0.707401
v -0.707400 4.310000 0.707401
v 0.707400 4.310000 -0.707399
v -0.707400 4.310000 -0.707399
v 0.707400 4.631600 0.707401
v -0.707400 4.631600 0.707401
v 0.707400 4.631600 -0.707399
v -0.707400 4.631600 -0.707399
v 0.632600 4.678200 0.632601
v -0.632600 4.678200 0.632601
v 0.632600 4.678200 -0.632599
v -0.632600 4.678200 -0.632599
v 0.677200 1.274300 0.886400
v -0.677200 1.274300 0.886400
v 0.623500 3.445600 0.832701
v -0.623500 3.445600 0.832701
v 0.886400 1.274300 -0.677200
v 0.886400 1.274300 0.677200
v 0.832700 3.445600 -0.623499
v 0.832700 3.445600 0.623501
v -0.677200 1.274300 -0.886400
v 0.677200 1.274300 -0.886400
v -0.623500 3.445600 -0.832699
v 0.623500 3.445600 -0.832699
v -0.886400 1.274300 0.677200
v -0.886400 1.274300 -0.677200
v -0.832700 3.445600 0.623501
v -0.832700 3.445600 -0.623499
v 0.532800 4.678200 0.532801
v -0.532800 4.678200 0.532801
v 0.532800 4.678200 -0.532799
v -0.532800 4.678200 -0.532799
v 0.532800 4.787800 0.532801
v -0.532800 4.787800 0.532801
v 0.532800 4.787800 -0.532799
v -0.532800 4.787800 -0.532799
v 0.652100 4.831900 0.652101
v -0.652100 4.831900 0.652101
v 0.652100 4.831900 -0.652099
v -0.652100 4.831900 -0.652099
v -0.451900 5.026800 0.530701
v 0.451900 5.026800 0.530701
v 0.305700 13.777200 0.384502
v -0.305700 13.777200 0.384502
v 0.530700 5.026800 0.451901
v 0.530700 5.026800 -0.451899
v 0.384500 13.777200 -0.305698
v 0.384500 13.777200 0.305702
v 0.451900 5.026800 -0.530699
v -0.451900 5.026800 -0.530699
v -0.305700 13.777200 -0.384398
v 0.305700 13.777200 -0.384398
v -0.530700 5.026800 -0.451899
v -0.530700 5.026800 0.451901
v -0.384500 13.777200 0.305702
v -0.384500 13.777200 -0.305698
v -0.500700 14.036200 0.500702
v 0.500700 14.036200 0.500702
v 0.085800 15.668900 0.085803
v -0.085800 15.668900 0.085803
v 0.500700 14.036200 -0.500698
v 0.085800 15.668900 -0.085797
v -0.500700 14.036200 -0.500698
v -0.085800 15.668900 -0.085797
v -0.458000 14.010500 0.458002
v -0.456400 13.990600 0.456402
v 0.456400 13.990600 0.456402
v 0.458000 14.010500 0.458002
v 0.456400 13.990600 -0.456398
v 0.458000 14.010500 -0.457998
v -0.456400 13.990600 -0.456398
v -0.458000 14.010500 -0.457998
v -0.499300 13.976000 0.499302
v 0.499300 13.976000 0.499302
v 0.495400 14.022400 0.495402
v -0.495400 14.022400 0.495402
v 0.499300 13.976000 -0.499298
v 0.495400 14.022400 -0.495398
v -0.499300 13.976000 -0.499298
v -0.495400 14.022400 -0.495398
v 0.451900 5.028700 0.648801
v -0.451900 5.028700 0.648801
v 0.305700 13.779200 0.502502
v -0.305700 13.779200 0.502502
v 0.648800 5.028700 -0.451899
v 0.648800 5.028700 0.451901
v 0.502500 13.779200 -0.305698
v 0.502500 13.779200 0.305702
v -0.451900 5.028700 -0.648799
v 0.451900 5.028700 -0.648799
v -0.305700 13.779200 -0.502498
v 0.305700 13.779200 -0.502498
v -0.648800 5.028700 0.451901
v -0.648800 5.028700 -0.451899
v -0.502500 13.779200 0.305702
v -0.502500 13.779200 -0.305698
vt 0.653000 0.295600
vt 0.654900 0.138900
vt 0.691800 0.139400
vt 0.689900 0.296000
vt 0.894100 0.155900
vt 0.892700 0.312500
vt 0.855800 0.312200
vt 0.857200 0.155500
vt 0.976500 0.899400
vt 0.819900 0.897500
vt 0.820300 0.860600
vt 0.977000 0.862500
vt 0.648100 0.852900
vt 0.804800 0.851000
vt 0.805200 0.887900
vt 0.648600 0.889800
vt 0.486100 0.831600
vt 0.486700 0.834500
vt 0.483900 0.834000
vt 0.641800 0.834000
vt 0.639000 0.834500
vt 0.639500 0.831800
vt 0.488600 0.987300
vt 0.491400 0.986700
vt 0.490900 0.989400
vt 0.644300 0.989600
vt 0.643700 0.986800
vt 0.646500 0.987300
vt 0.654900 0.136200
vt 0.691800 0.136700
vt 0.808000 0.887900
vt 0.807500 0.851000
vt 0.892700 0.315300
vt 0.855800 0.314900
vt 0.817100 0.897500
vt 0.817600 0.860600
vt 0.274700 0.453300
vt 0.282800 0.453300
vt 0.282800 0.461500
vt 0.274600 0.461400
vt 0.657800 0.780600
vt 0.657800 0.624000
vt 0.698500 0.624000
vt 0.698500 0.780600
vt 0.693200 0.300400
vt 0.693200 0.457100
vt 0.652500 0.457100
vt 0.652500 0.300400
vt 0.987800 0.672300
vt 0.987800 0.828900
vt 0.947100 0.828900
vt 0.947100 0.672300
vt 0.710900 0.780600
vt 0.710900 0.624000
vt 0.751600 0.624000
vt 0.751600 0.780600
vt 0.707700 0.629600
vt 0.707700 0.775000
vt 0.643300 0.451500
vt 0.643300 0.306000
vt 0.937900 0.823300
vt 0.937900 0.677900
vt 0.760900 0.629600
vt 0.760900 0.775000
vt 0.450900 0.263000
vt 0.458900 0.154300
vt 0.622900 0.163900
vt 0.616000 0.264200
vt 0.440400 0.431500
vt 0.445800 0.322600
vt 0.609900 0.328100
vt 0.605500 0.428500
vt 0.435600 0.605300
vt 0.441000 0.496500
vt 0.605100 0.502000
vt 0.600700 0.602400
vt 0.436800 0.773600
vt 0.436700 0.664700
vt 0.600900 0.662100
vt 0.601500 0.762600
vt 0.005800 0.959900
vt 0.005800 0.941300
vt 0.175100 0.941300
vt 0.175100 0.959900
vt 0.314900 0.959900
vt 0.314900 0.941300
vt 0.484200 0.941300
vt 0.484200 0.959900
vt 0.953700 0.175700
vt 0.935100 0.175100
vt 0.940500 0.005800
vt 0.959200 0.006400
vt 0.329700 0.890800
vt 0.329700 0.909500
vt 0.160400 0.909500
vt 0.160400 0.890800
vt 0.018000 0.926800
vt 0.023700 0.911100
vt 0.156300 0.911100
vt 0.162100 0.926800
vt 0.163000 0.974400
vt 0.157200 0.990200
vt 0.024600 0.990200
vt 0.018900 0.974400
vt 0.327000 0.926800
vt 0.332800 0.911100
vt 0.465400 0.911100
vt 0.471200 0.926800
vt 0.472100 0.974400
vt 0.466300 0.990200
vt 0.333700 0.990200
vt 0.327900 0.974400
vt 0.921000 0.162500
vt 0.905400 0.156200
vt 0.909700 0.023700
vt 0.925600 0.018400
vt 0.973200 0.019000
vt 0.988800 0.025300
vt 0.984500 0.157800
vt 0.968600 0.163100
vt 0.317500 0.924000
vt 0.311800 0.939700
vt 0.179200 0.939700
vt 0.173400 0.924000
vt 0.172500 0.876400
vt 0.178300 0.860600
vt 0.310900 0.860600
vt 0.316600 0.876400
vt 0.173600 0.938300
vt 0.006500 0.938300
vt 0.161900 0.912500
vt 0.329000 0.912400
vt 0.937500 0.007300
vt 0.932200 0.174300
vt 0.482600 0.938300
vt 0.315600 0.938300
vt 0.007400 0.962900
vt 0.174500 0.962900
vt 0.316500 0.962900
vt 0.483500 0.962900
vt 0.956700 0.174200
vt 0.962100 0.007200
vt 0.328100 0.887900
vt 0.161100 0.887900
vt 0.033400 0.901400
vt 0.146700 0.901400
vt 0.342400 0.901400
vt 0.455800 0.901400
vt 0.896100 0.146200
vt 0.899800 0.033000
vt 0.302100 0.949300
vt 0.188800 0.949400
vt 0.033400 0.875700
vt 0.146700 0.875700
vt 0.342400 0.875700
vt 0.455800 0.875700
vt 0.870400 0.145400
vt 0.874000 0.032100
vt 0.302100 0.975100
vt 0.188800 0.975100
vt 0.039400 0.868600
vt 0.140700 0.868600
vt 0.348400 0.868600
vt 0.449800 0.868600
vt 0.863500 0.139200
vt 0.866800 0.037900
vt 0.296200 0.982200
vt 0.194800 0.982200
vt 0.421100 0.293400
vt 0.430900 0.126600
vt 0.446700 0.144900
vt 0.441200 0.274800
vt 0.651100 0.137500
vt 0.632600 0.152700
vt 0.642800 0.287900
vt 0.628100 0.273000
vt 0.411500 0.462600
vt 0.417000 0.295600
vt 0.433400 0.313500
vt 0.431000 0.443500
vt 0.637400 0.301000
vt 0.619400 0.316700
vt 0.632900 0.451600
vt 0.617900 0.437100
vt 0.406700 0.636500
vt 0.412200 0.469400
vt 0.428500 0.487300
vt 0.426200 0.617300
vt 0.632600 0.474900
vt 0.614500 0.490500
vt 0.628100 0.625500
vt 0.613000 0.610900
vt 0.409400 0.806200
vt 0.406700 0.639100
vt 0.423900 0.656200
vt 0.428000 0.786100
vt 0.627100 0.633600
vt 0.609800 0.650100
vt 0.630000 0.784200
vt 0.614200 0.770500
vt 0.047400 0.860600
vt 0.132700 0.860600
vt 0.356400 0.860600
vt 0.441800 0.860600
vt 0.855800 0.131000
vt 0.858500 0.045600
vt 0.288200 0.990200
vt 0.202800 0.990200
vt 0.908900 0.768900
vt 0.908900 0.682000
vt 0.917800 0.682000
vt 0.917800 0.768900
vt 0.870300 0.580500
vt 0.870300 0.493700
vt 0.879200 0.493700
vt 0.879200 0.580500
vt 0.715700 0.348800
vt 0.715700 0.435700
vt 0.706800 0.435700
vt 0.706800 0.348800
vt 0.696400 0.513000
vt 0.696400 0.599900
vt 0.687500 0.599900
vt 0.687500 0.513000
vt 0.928200 0.672300
vt 0.928200 0.778600
vt 0.889600 0.483900
vt 0.889600 0.590300
vt 0.696400 0.445400
vt 0.696400 0.339100
vt 0.677100 0.609600
vt 0.677100 0.503200
vt 0.171900 0.175600
vt 0.252200 0.178100
vt 0.229200 0.820400
vt 0.176300 0.818900
vt 0.036000 0.107900
vt 0.037100 0.027600
vt 0.679700 0.040500
vt 0.679100 0.093400
vt 0.032300 0.171200
vt 0.112600 0.172400
vt 0.099700 0.814900
vt 0.046800 0.814300
vt 0.312100 0.160900
vt 0.392500 0.162800
vt 0.374100 0.805200
vt 0.321200 0.804200
vt 0.855200 0.321400
vt 0.773700 0.322200
vt 0.806100 0.184700
vt 0.820100 0.184500
vt 0.845600 0.148400
vt 0.764000 0.147500
vt 0.799300 0.010700
vt 0.813300 0.010800
vt 0.720600 0.169800
vt 0.802100 0.170600
vt 0.766900 0.307500
vt 0.752900 0.307300
vt 0.710900 0.015200
vt 0.792500 0.016200
vt 0.757000 0.153000
vt 0.743000 0.152800
vt 0.726200 0.831600
vt 0.726100 0.833300
vt 0.651600 0.833300
vt 0.651500 0.831600
vt 0.754400 0.540400
vt 0.756000 0.540500
vt 0.756000 0.615000
vt 0.754400 0.615100
vt 0.820500 0.016000
vt 0.820600 0.014400
vt 0.895100 0.014400
vt 0.895200 0.016000
vt 0.108000 0.846100
vt 0.107900 0.847800
vt 0.033500 0.847800
vt 0.033300 0.846100
vt 0.729500 0.837000
vt 0.648100 0.837000
vt 0.777300 0.326800
vt 0.774200 0.323600
vt 0.854800 0.322800
vt 0.851800 0.326000
vt 0.759700 0.537100
vt 0.759700 0.618500
vt 0.767500 0.152100
vt 0.764500 0.148900
vt 0.845100 0.149800
vt 0.842100 0.152900
vt 0.817100 0.010700
vt 0.898600 0.010700
vt 0.798600 0.166000
vt 0.801600 0.169200
vt 0.721000 0.168400
vt 0.724100 0.165200
vt 0.111400 0.851400
vt 0.030000 0.851400
vt 0.789000 0.011600
vt 0.792000 0.014800
vt 0.711400 0.013800
vt 0.714400 0.010700
vt 0.141000 0.145900
vt 0.279300 0.147200
vt 0.263000 0.163300
vt 0.157900 0.164900
vt 0.256600 0.848900
vt 0.242500 0.831200
vt 0.152800 0.848500
vt 0.166300 0.834000
vt 0.006700 0.139200
vt 0.005800 0.001000
vt 0.022200 0.017000
vt 0.025400 0.122100
vt 0.707800 0.012700
vt 0.690300 0.027100
vt 0.709000 0.116500
vt 0.694300 0.103200
vt 0.001000 0.141900
vt 0.139200 0.141000
vt 0.123200 0.157400
vt 0.018200 0.160700
vt 0.127500 0.843000
vt 0.113100 0.825500
vt 0.023700 0.844200
vt 0.037000 0.829500
vt 0.281100 0.131400
vt 0.419300 0.131700
vt 0.403200 0.148000
vt 0.298100 0.150300
vt 0.401600 0.833500
vt 0.387400 0.815900
vt 0.297900 0.833900
vt 0.311200 0.819300
vt 0.271400 0.450100
vt 0.286000 0.450100
vt 0.286000 0.464600
vt 0.271500 0.464600
vn -0.3827 -0.0000 0.9239
vn 0.3827 -0.0000 0.9239
vn 0.3415 0.3424 0.8753
vn -0.3415 0.3424 0.8753
vn 0.9239 0.0000 0.3827
vn 0.9239 0.0000 -0.3827
vn 0.8756 0.3414 -0.3416
vn 0.8756 0.3415 0.3416
vn 0.3827 0.0000 -0.9239
vn -0.3827 0.0000 -0.9239
vn -0.3415 0.3424 -0.8753
vn 0.3415 0.3424 -0.8753
vn -0.9239 0.0000 -0.3827
vn -0.9239 0.0000 0.3827
vn -0.8756 0.3414 0.3416
vn -0.8756 0.3415 -0.3416
vn -0.6042 0.5196 0.6042
vn 0.6042 0.5195 0.6042
vn -0.6042 0.5195 -0.6042
vn 0.6042 0.5196 -0.6042
vn -0.1744 0.9691 0.1744
vn 0.1744 0.9691 0.1744
vn 0.1744 0.9691 -0.1744
vn -0.1744 0.9691 -0.1744
vn 0.6631 0.3472 0.6631
vn -0.6631 0.3472 0.6631
vn 0.6631 0.3472 -0.6631
vn -0.6631 0.3472 -0.6631
vn 0.6109 0.5035 0.6109
vn -0.6109 0.5035 0.6109
vn 0.6109 0.5035 -0.6109
vn -0.6109 0.5035 -0.6109
vn 0.5851 0.5851 0.5616
vn -0.5851 0.5851 0.5616
vn -0.5696 -0.5691 0.5931
vn 0.5696 -0.5691 0.5931
vn 0.5616 0.5851 -0.5851
vn 0.5616 0.5851 0.5851
vn 0.5931 -0.5691 0.5696
vn 0.5931 -0.5691 -0.5696
vn -0.5851 0.5851 -0.5616
vn 0.5851 0.5851 -0.5616
vn 0.5696 -0.5691 -0.5931
vn -0.5696 -0.5691 -0.5931
vn -0.5616 0.5851 0.5851
vn -0.5616 0.5851 -0.5851
vn -0.5931 -0.5691 -0.5696
vn -0.5931 -0.5691 0.5696
vn 0.6704 -0.3178 0.6704
vn 0.6705 0.3176 0.6705
vn -0.6705 0.3175 0.6705
vn -0.6704 -0.3178 0.6704
vn 0.6704 -0.3178 -0.6704
vn 0.6704 0.3179 -0.6704
vn -0.6704 -0.3178 -0.6704
vn -0.6705 0.3176 -0.6705
vn 0.2368 0.9423 0.2368
vn 0.4577 0.7623 0.4577
vn -0.4577 0.7623 0.4577
vn -0.2368 0.9423 0.2368
vn -0.2368 -0.9423 0.2368
vn -0.6813 -0.2678 0.6813
vn 0.6813 -0.2678 0.6813
vn 0.2368 -0.9423 0.2368
vn 0.2368 0.9423 -0.2368
vn 0.4577 0.7623 -0.4577
vn 0.6813 -0.2678 -0.6813
vn 0.2368 -0.9423 -0.2368
vn -0.2368 0.9423 -0.2368
vn -0.4577 0.7623 -0.4577
vn -0.6813 -0.2678 -0.6813
vn -0.2368 -0.9423 -0.2368
vn -0.3948 0.8296 0.3948
vn 0.3949 0.8295 0.3949
vn -0.3949 0.8295 -0.3949
vn 0.3948 0.8296 -0.3948
vn 0.3949 -0.8295 0.3949
vn -0.3949 -0.8295 0.3949
vn 0.3949 -0.8295 -0.3949
vn -0.3949 -0.8295 -0.3949
vn 0.3015 0.9045 0.3015
vn -0.3015 0.9045 0.3015
vn 0.3015 0.9045 -0.3015
vn -0.3015 0.9045 -0.3015
vn 0.6292 0.4563 0.6292
vn -0.6292 0.4563 0.6292
vn 0.6292 0.4563 -0.6292
vn -0.6292 0.4563 -0.6292
vn 0.2113 0.9543 0.2113
vn -0.2113 0.9543 0.2113
vn 0.2113 0.9543 -0.2113
vn -0.2113 0.9543 -0.2113
vn -0.3011 0.3159 0.8998
vn 0.3011 0.3159 0.8998
vn -0.3019 -0.2873 0.9090
vn 0.3019 -0.2873 0.9090
vn 0.8998 0.3159 0.3011
vn 0.8998 0.3159 -0.3011
vn 0.9090 -0.2873 0.3019
vn 0.9090 -0.2873 -0.3019
vn 0.3011 0.3159 -0.8998
vn -0.3011 0.3159 -0.8998
vn 0.3019 -0.2873 -0.9090
vn -0.3019 -0.2873 -0.9090
vn -0.8998 0.3159 -0.3011
vn -0.8998 0.3159 0.3011
vn -0.9090 -0.2873 -0.3019
vn -0.9090 -0.2873 0.3019
vn 0.4317 -0.7920 0.4317
vn -0.4317 -0.7920 0.4317
vn 0.4317 -0.7920 -0.4317
vn -0.4317 -0.7920 -0.4317
vn 0.6143 -0.4953 0.6143
vn -0.6143 -0.4953 0.6143
vn 0.6143 -0.4953 -0.6143
vn -0.6143 -0.4953 -0.6143
vn 0.5826 0.5823 0.5670
vn -0.5826 0.5823 0.5670
vn -0.5721 -0.5719 0.5879
vn 0.5721 -0.5719 0.5879
vn 0.5670 0.5823 -0.5826
vn 0.5670 0.5823 0.5826
vn 0.5879 -0.5719 0.5721
vn 0.5879 -0.5719 -0.5721
vn -0.5826 0.5823 -0.5670
vn 0.5826 0.5823 -0.5670
vn 0.5721 -0.5719 -0.5879
vn -0.5721 -0.5719 -0.5879
vn -0.5670 0.5823 0.5826
vn -0.5670 0.5823 -0.5826
vn -0.5879 -0.5719 -0.5721
vn -0.5879 -0.5719 0.5721
vn -0.7056 -0.0660 0.7056
vn 0.7055 -0.0669 0.7055
vn 0.5533 0.6227 0.5533
vn -0.5533 0.6227 0.5533
vn 0.7055 -0.0669 -0.7055
vn 0.5533 0.6227 -0.5533
vn -0.7055 -0.0669 -0.7055
vn -0.5533 0.6227 -0.5533
vn -0.3904 -0.8338 0.3904
vn -0.4470 0.7748 0.4470
vn 0.4469 0.7750 0.4469
vn 0.3904 -0.8338 0.3904
vn 0.4469 0.7750 -0.4469
vn 0.3904 -0.8338 -0.3904
vn -0.4469 0.7750 -0.4469
vn -0.3904 -0.8338 -0.3904
vn -0.6041 0.5199 0.6040
vn 0.6041 0.5199 0.6040
vn 0.4954 -0.7136 0.4954
vn -0.4954 -0.7136 0.4954
vn 0.6041 0.5199 -0.6040
vn 0.4954 -0.7136 -0.4954
vn -0.6041 0.5199 -0.6040
vn -0.4954 -0.7136 -0.4954
vn -0.3010 0.3111 0.9014
vn 0.3010 0.3111 0.9014
vn -0.3019 -0.2920 0.9075
vn 0.3019 -0.2914 0.9077
vn 0.9014 0.3111 0.3010
vn 0.9014 0.3111 -0.3010
vn 0.9075 -0.2920 0.3019
vn 0.9075 -0.2920 -0.3019
vn 0.3010 0.3111 -0.9014
vn -0.3010 0.3111 -0.9014
vn 0.3019 -0.2920 -0.9075
vn -0.3019 -0.2920 -0.9075
vn -0.9014 0.3111 -0.3010
vn -0.9014 0.3111 0.3010
vn -0.9075 -0.2920 -0.3019
vn -0.9075 -0.2920 0.3019
usemtl map_Obelisk_01
s 1
f 1/1/1 2/2/2 3/3/3 4/4/4
f 5/5/5 6/6/6 7/7/7 8/8/8
f 9/9/9 10/10/10 11/11/11 12/12/12
f 13/13/13 14/14/14 15/15/15 16/16/16
f 4/17/4 17/18/17 15/19/15
f 8/20/8 18/21/18 3/22/3
f 16/23/16 19/24/19 11/25/11
f 12/26/12 20/27/20 7/28/7
f 17/18/17 4/17/4 3/22/3 18/21/18
f 18/21/18 8/20/8 7/28/7 20/27/20
f 20/27/20 12/26/12 11/25/11 19/24/19
f 19/24/19 16/23/16 15/19/15 17/18/17
f 2/2/2 5/29/5 8/30/8 3/3/3
f 4/31/4 15/15/15 14/14/14 1/32/1
f 6/6/6 9/33/9 12/34/12 7/7/7
f 10/10/10 13/35/13 16/36/16 11/11/11
f 21/37/21 22/38/22 23/39/23 24/40/24
f 17/41/17 18/42/18 25/43/25 26/44/26
f 18/45/18 20/46/20 27/47/27 25/48/25
f 20/49/20 19/50/19 28/51/28 27/52/27
f 19/53/19 17/54/17 26/55/26 28/56/28
f 26/44/26 25/43/25 29/57/29 30/58/30
f 25/48/25 27/47/27 31/59/31 29/60/29
f 27/52/27 28/51/28 32/61/32 31/62/31
f 28/56/28 26/55/26 30/63/30 32/64/32
f 33/65/33 34/66/34 35/67/35 36/68/36
f 37/69/37 38/70/38 39/71/39 40/72/40
f 41/73/41 42/74/42 43/75/43 44/76/44
f 45/77/45 46/78/46 47/79/47 48/80/48
f 49/81/49 50/82/50 51/83/51 52/84/52
f 53/85/53 54/86/54 50/87/50 49/88/49
f 55/89/55 56/90/56 54/91/54 53/92/53
f 52/93/52 51/94/51 56/95/56 55/96/55
f 57/97/57 58/98/58 59/99/59 60/100/60
f 61/101/61 62/102/62 63/103/63 64/104/64
f 65/105/65 66/106/66 58/107/58 57/108/57
f 64/109/64 63/110/63 67/111/67 68/112/68
f 69/113/69 70/114/70 66/115/66 65/116/65
f 68/117/68 67/118/67 71/119/71 72/120/72
f 60/121/60 59/122/59 70/123/70 69/124/69
f 72/125/72 71/126/71 62/127/62 61/128/61
f 57/97/57 60/100/60 73/129/73 74/130/74
f 60/121/60 69/124/69 75/131/75 73/132/73
f 69/113/69 65/116/65 76/133/76 75/134/75
f 65/105/65 57/108/57 74/135/74 76/136/76
f 61/101/61 64/104/64 77/137/77 78/138/78
f 64/109/64 68/112/68 79/139/79 77/140/77
f 68/117/68 72/120/72 80/141/80 79/142/79
f 72/125/72 61/128/61 78/143/78 80/144/80
f 59/99/59 58/98/58 81/145/81 82/146/82
f 58/107/58 66/106/66 83/147/83 81/148/81
f 66/115/66 70/114/70 84/149/84 83/150/83
f 70/123/70 59/122/59 82/151/82 84/152/84
f 82/146/82 81/145/81 85/153/85 86/154/86
f 81/148/81 83/147/83 87/155/87 85/156/85
f 83/150/83 84/149/84 88/157/88 87/158/87
f 84/152/84 82/151/82 86/159/86 88/160/88
f 86/154/86 85/153/85 89/161/89 90/162/90
f 85/156/85 87/155/87 91/163/91 89/164/89
f 87/158/87 88/157/88 92/165/92 91/166/91
f 88/160/88 86/159/86 90/167/90 92/168/92
f 30/169/30 29/170/29 93/171/93 94/172/94
f 29/170/29 63/173/63 95/174/95 93/171/93
f 63/173/63 62/175/62 96/176/96 95/174/95
f 62/175/62 30/169/30 94/172/94 96/176/96
f 29/177/29 31/178/31 97/179/97 98/180/98
f 31/178/31 67/181/67 99/182/99 97/179/97
f 67/181/67 63/183/63 100/184/100 99/182/99
f 63/183/63 29/177/29 98/180/98 100/184/100
f 31/185/31 32/186/32 101/187/101 102/188/102
f 32/186/32 71/189/71 103/190/103 101/187/101
f 71/189/71 67/191/67 104/192/104 103/190/103
f 67/191/67 31/185/31 102/188/102 104/192/104
f 32/193/32 30/194/30 105/195/105 106/196/106
f 30/194/30 62/197/62 107/198/107 105/195/105
f 62/197/62 71/199/71 108/200/108 107/198/107
f 71/199/71 32/193/32 106/196/106 108/200/108
f 94/172/94 93/171/93 34/66/34 33/65/33
f 93/171/93 95/174/95 35/67/35 34/66/34
f 95/174/95 96/176/96 36/68/36 35/67/35
f 96/176/96 94/172/94 33/65/33 36/68/36
f 98/180/98 97/179/97 38/70/38 37/69/37
f 97/179/97 99/182/99 39/71/39 38/70/38
f 99/182/99 100/184/100 40/72/40 39/71/39
f 100/184/100 98/180/98 37/69/37 40/72/40
f 102/188/102 101/187/101 42/74/42 41/73/41
f 101/187/101 103/190/103 43/75/43 42/74/42
f 103/190/103 104/192/104 44/76/44 43/75/43
f 104/192/104 102/188/102 41/73/41 44/76/44
f 106/196/106 105/195/105 46/78/46 45/77/45
f 105/195/105 107/198/107 47/79/47 46/78/46
f 107/198/107 108/200/108 48/80/48 47/79/47
f 108/200/108 106/196/106 45/77/45 48/80/48
f 90/162/90 89/161/89 109/201/81 110/202/82
f 89/164/89 91/163/91 111/203/83 109/204/81
f 91/166/91 92/165/92 112/205/84 111/206/83
f 92/168/92 90/167/90 110/207/82 112/208/84
f 110/209/82 109/210/81 113/211/109 114/212/110
f 109/213/81 111/214/83 115/215/111 113/216/109
f 111/217/83 112/218/84 116/219/112 115/220/111
f 112/221/84 110/222/82 114/223/110 116/224/112
f 114/212/110 113/211/109 117/225/113 118/226/114
f 113/216/109 115/215/111 119/227/115 117/228/113
f 115/220/111 116/219/112 120/229/116 119/230/115
f 116/224/112 114/223/110 118/231/114 120/232/116
f 121/233/117 122/234/118 123/235/119 124/236/120
f 125/237/121 126/238/122 127/239/123 128/240/124
f 129/241/125 130/242/126 131/243/127 132/244/128
f 133/245/129 134/246/130 135/247/131 136/248/132
f 137/249/133 138/250/134 139/251/135 140/252/136
f 138/253/134 141/254/137 142/255/138 139/256/135
f 141/257/137 143/258/139 144/259/140 142/260/138
f 143/261/139 137/262/133 140/263/136 144/264/140
f 145/265/141 146/266/142 147/267/143 148/268/144
f 148/269/144 147/270/143 149/271/145 150/272/146
f 150/273/146 149/274/145 151/275/147 152/276/148
f 152/277/148 151/278/147 146/279/142 145/280/141
f 146/266/142 153/281/149 154/282/150 147/267/143
f 148/283/144 155/284/151 156/285/152 145/286/141
f 147/270/143 154/287/150 157/288/153 149/271/145
f 150/289/146 158/290/154 155/291/151 148/292/144
f 149/274/145 157/293/153 159/294/155 151/275/147
f 152/295/148 160/296/156 158/297/154 150/298/146
f 151/278/147 159/299/155 153/300/149 146/279/142
f 145/301/141 156/302/152 160/303/156 152/304/148
f 137/249/133 156/285/152 155/284/151 138/250/134
f 138/253/134 155/291/151 158/290/154 141/254/137
f 141/257/137 158/297/154 160/296/156 143/258/139
f 143/261/139 160/303/156 156/302/152 137/262/133
f 118/305/114 117/306/113 161/307/157 162/308/158
f 117/306/113 154/309/150 163/310/159 161/307/157
f 154/309/150 153/311/149 164/312/160 163/310/159
f 153/311/149 118/305/114 162/308/158 164/312/160
f 117/313/113 119/314/115 165/315/161 166/316/162
f 119/314/115 157/317/153 167/318/163 165/315/161
f 157/317/153 154/319/150 168/320/164 167/318/163
f 154/319/150 117/313/113 166/316/162 168/320/164
f 119/321/115 120/322/116 169/323/165 170/324/166
f 120/322/116 159/325/155 171/326/167 169/323/165
f 159/325/155 157/327/153 172/328/168 171/326/167
f 157/327/153 119/321/115 170/324/166 172/328/168
f 120/329/116 118/330/114 173/331/169 174/332/170
f 118/330/114 153/333/149 175/334/171 173/331/169
f 153/333/149 159/335/155 176/336/172 175/334/171
f 159/335/155 120/329/116 174/332/170 176/336/172
f 162/308/158 161/307/157 122/234/118 121/233/117
f 161/307/157 163/310/159 123/235/119 122/234/118
f 163/310/159 164/312/160 124/236/120 123/235/119
f 164/312/160 162/308/158 121/233/117 124/236/120
f 166/316/162 165/315/161 126/238/122 125/237/121
f 165/315/161 167/318/163 127/239/123 126/238/122
f 167/318/163 168/320/164 128/240/124 127/239/123
f 168/320/164 166/316/162 125/237/121 128/240/124
f 170/324/166 169/323/165 130/242/126 129/241/125
f 169/323/165 171/326/167 131/243/127 130/242/126
f 171/326/167 172/328/168 132/244/128 131/243/127
f 172/328/168 170/324/166 129/241/125 132/244/128
f 174/332/170 173/331/169 134/246/130 133/245/129
f 173/331/169 175/334/171 135/247/131 134/246/130
f 175/334/171 176/336/172 136/248/132 135/247/131
f 176/336/172 174/332/170 133/245/129 136/248/132
f 50/82/50 74/130/74 73/129/73 51/83/51
f 51/94/51 73/132/73 75/131/75 56/95/56
f 56/90/56 75/134/75 76/133/76 54/91/54
f 54/86/54 76/136/76 74/135/74 50/87/50
f 52/84/52 78/138/78 77/137/77 49/81/49
f 49/88/49 77/140/77 79/139/79 53/85/53
f 53/92/53 79/142/79 80/141/80 55/89/55
f 55/96/55 80/144/80 78/143/78 52/93/52
f 140/337/136 139/338/135 22/38/22 21/37/21
f 139/338/135 142/339/138 23/39/23 22/38/22
f 142/339/138 144/340/140 24/40/24 23/39/23
f 144/340/140 140/337/136 21/37/21 24/40/24
