# Blender 4.3.2
# www.blender.org
mtllib untitled.mtl
o Cube
v 1.000000 -1.000000 -1.000000
v -1.000000 1.000000 -1.000000
v -1.000000 -1.000000 -1.000000
v -1.000000 -1.000000 1.000000
vn 0.5774 0.5774 0.5774
vn -1.0000 -0.0000 -0.0000
vn -0.0000 -1.0000 -0.0000
vn -0.0000 -0.0000 -1.0000
vt 0.375000 0.500000
vt 0.875000 0.500000
vt 0.375000 1.000000
vt 0.375000 0.000000
vt 0.625000 0.250000
vt 0.375000 0.250000
vt 0.125000 0.500000
vt 0.125000 0.750000
s 0
usemtl Material
f 1/1/1 2/2/1 4/3/1
f 4/4/2 2/5/2 3/6/2
f 3/7/3 1/1/3 4/8/3
f 3/6/4 2/5/4 1/1/4
